{"accessors":[{"bufferView":0,"componentType":5123,"count":4680,"max":[820],"min":[0],"type":"SCALAR"},{"bufferView":1,"componentType":5126,"count":821,"max":[3.434000015258789,3.1500000953674316,2.0],"min":[-3.0,0.0,-2.0],"type":"VEC3"},{"bufferView":2,"componentType":5126,"count":821,"max":[1.0,1.0,1.0],"min":[-1.0,-1.0,-1.0],"type":"VEC3"}],"asset":{"generator":"Verge3D for Blender","version":"2.0"},"bufferViews":[{"buffer":0,"byteLength":9360,"byteOffset":0,"target":34963},{"buffer":0,"byteLength":9852,"byteOffset":9360,"target":34962},{"buffer":0,"byteLength":9852,"byteOffset":19212,"target":34962}],"buffers":[{"byteLength":29064,"uri":"nocap3D.bin"}],"cameras":[{"extensions":{"S8S_v3d_camera":{"controls":"ORBIT","enablePan":true,"moveSpeed":1.0,"orbitMaxDistance":100.0,"orbitMaxPolarAngle":3.1415927410125732,"orbitMaxZoom":100.0,"orbitMinDistance":0.0,"orbitMinPolarAngle":0.0,"orbitMinZoom":0.009999999776482582,"orbitTarget":[0.0,0.0,-0.0],"rotateSpeed":1.0,"viewportFitInitialAspect":1.7777777777777777,"viewportFitType":"AUTO"}},"name":"Camera","perspective":{"aspectRatio":1.7777777777777777,"yfov":0.5033799372418416,"zfar":100.0,"znear":0.10000000149011612},"type":"perspective"}],"extensions":{"S8S_v3d_lights":{"lights":[{"color":[1.0,1.0,1.0],"decay":2,"distance":10.00000011175871,"intensity":100.0,"name":"Lamp","profile":"blender","shadow":{"bias":-0.0018,"cameraFar":10.00000011175871,"cameraFov":0,"cameraNear":1.0007989406585693,"enabled":true,"expBias":2.5,"mapSize":512,"radius":1.0,"slopeScaledBias":2.5},"type":"point"},{"color":[1.0,0.021598266437649727,0.0],"intensity":1.5600013732910156,"name":"Point","profile":"blender","shadow":{"bias":-0.0018,"cameraFar":100,"cameraFov":0,"cameraNear":0.1,"csm":{"maxDistance":200.0},"enabled":true,"expBias":2.5,"mapSize":1024,"radius":1.0,"slopeScaledBias":2.5},"type":"directional"}]}},"extensionsUsed":["S8S_v3d_texture","S8S_v3d_materials","S8S_v3d_camera","S8S_v3d_lights","S8S_v3d_mesh","S8S_v3d_node","S8S_v3d_scene"],"images":[{"uri":"environment.hdr"}],"materials":[{"extensions":{"S8S_v3d_materials":{"gtaoVisible":true,"materialIndex":0,"nodeGraph":{"edges":[{"fromNode":0,"fromOutput":0,"toInput":0,"toNode":1},{"fromNode":4,"fromOutput":0,"toInput":1,"toNode":2},{"fromNode":3,"fromOutput":0,"toInput":0,"toNode":2},{"fromNode":2,"fromOutput":0,"toInput":0,"toNode":0}],"nodes":[{"inputs":[[0.05087608844041824,0.05087608844041824,0.05087608844041824,1.0],1.0],"is_active_output":false,"name":"Background","outputs":[[0,0,0,0]],"type":"BACKGROUND_BL"},{"inputs":[[0,0,0,0],[0,0,0,0]],"is_active_output":true,"name":"World Output","outputs":[],"type":"OUTPUT_WORLD_BL"},{"blendType":"MIX","inputs":[0.5,[0.5,0.5,0.5,1.0],[0.05126946419477463,0.05126946419477463,0.05126946419477463,1.0]],"is_active_output":false,"name":"Mix","outputs":[[0.0,0.0,0.0,0.0]],"type":"MIX_RGB_BL","useClamp":false},{"inputs":[],"is_active_output":false,"name":"Light Path","outputs":[0.0,0.0,0.0,0.0,0.0,0.0,0.0,0.0,0.0,0.0,0.0,0.0,0.0],"type":"LIGHT_PATH_BL"},{"inputs":[[0.0,0.0,0.0]],"is_active_output":false,"name":"Environment Texture","outputs":[[0.0,0.0,0.0,0.0]],"projection":"EQUIRECTANGULAR","texture":0,"type":"TEX_ENVIRONMENT_BL"}]},"useCastShadows":true}},"name":"Verge3D_Environment_World"},{"extensions":{"S8S_v3d_materials":{"nodeGraph":{"edges":[{"fromNode":1,"fromOutput":0,"toInput":0,"toNode":0}],"nodes":[{"inputs":[[0,0,0,0],[0,0,0,0],[0,0,0]],"is_active_output":true,"name":"Material Output","outputs":[],"type":"OUTPUT_MATERIAL_BL"},{"inputs":[[0.800000011920929,0.800000011920929,0.800000011920929,1.0],0.0,[0.0,0.0,0.0]],"is_active_output":false,"name":"Diffuse BSDF","outputs":[[0,0,0,0]],"type":"BSDF_DIFFUSE_BL"}]},"useCastShadows":true,"useShadows":true}},"name":"v3d_default_material"}],"meshes":[{"extensions":{"S8S_v3d_mesh":{"colorLayers":{},"uvLayers":{}}},"name":"Teapot","primitives":[{"attributes":{"NORMAL":2,"POSITION":1},"indices":0,"material":1,"mode":4}]}],"nodes":[{"extensions":{"S8S_v3d_node":{"frustumCulling":true,"groupNames":[],"hidden":false,"hidpiCompositing":false,"objectColor":[1.0,1.0,1.0,1.0],"objectIndex":0,"renderOrder":0,"useShadows":true}},"mesh":0,"name":"Teapot"},{"camera":0,"extensions":{"S8S_v3d_node":{"frustumCulling":true,"groupNames":["Collection 1"],"hidden":false,"hidpiCompositing":false,"objectColor":[0.0,0.0,0.0,0.0],"objectIndex":0,"renderOrder":0}},"name":"Camera","rotation":[-0.20997294783592224,0.3857799768447876,0.09062846004962921,0.8937962055206299],"scale":[1.0,0.9999999403953552,0.9999998807907104],"translation":[7.226052284240723,5.1113457679748535,6.946681022644043]},{"extensions":{"S8S_v3d_lights":{"light":0},"S8S_v3d_node":{"frustumCulling":true,"groupNames":["Collection 1"],"hidden":false,"hidpiCompositing":false,"objectColor":[0.0,0.0,0.0,0.0],"objectIndex":0,"renderOrder":0}},"name":"Lamp","rotation":[-0.2841663062572479,0.7269423604011536,0.34203389286994934,0.5232754945755005],"scale":[0.9999999403953552,0.9999997019767761,0.9999999403953552],"translation":[4.076245307922363,5.903861999511719,-1.0054539442062378]},{"extensions":{"S8S_v3d_lights":{"light":1},"S8S_v3d_node":{"frustumCulling":true,"groupNames":[],"hidden":false,"hidpiCompositing":false,"objectColor":[1.0,1.0,1.0,1.0],"objectIndex":0,"renderOrder":0}},"name":"Point","rotation":[-0.23050452768802643,0.008547802455723286,-0.12896525859832764,0.9644493460655212],"scale":[1.0,0.9999999403953552,0.9999999403953552],"translation":[0.0,4.264542102813721,0.0]}],"samplers":[{}],"scene":0,"scenes":[{"extensions":{"S8S_v3d_scene":{"aaMethod":"AUTO","iblEnvironmentMode":"PMREM","physicallyCorrectLights":true,"pmremMaxTileSize":256,"shadowMap":{"esmDistanceScale":1.0,"renderReverseSided":false,"renderSingleSided":true,"type":"PCFPOISSON"},"worldMaterial":0}},"extras":{"animFrameRate":24,"coordSystem":"Z_UP_RIGHT"},"name":"Scene","nodes":[0,3,2,1]}],"textures":[{"extensions":{"S8S_v3d_texture":{"colorSpace":"linear","source":0}},"name":"environment.hdr","sampler":0}]}
